<svg xml:space="preserve" style="max-height: 500px" viewBox="412 832 1196 336" y="0px" x="0px" xmlns:xlink="http://www.w3.org/1999/xlink" xmlns="http://www.w3.org/2000/svg" id="Layer_1" version="1.1" width="1196" height="336">
  <style type="text/css">
    .st0{display:none;}
    .st1{fill:#9089FC;}
    @media (prefers-color-scheme: dark) {
      .st1{fill:#9089FC;}
    }
  </style>
  <g>
    <g>
      <g>
        <path fill="#FFFFFF" d="M771.22,1059.54V942.08h99.69v20.52h-79.33v96.94H771.22z M806.6,1010.91v-17.93h59.46v17.93H806.6z"/>
        <path fill="#FFFFFF" d="M885.12,1059.54V942.08h20.52v96.94h79.01v20.52H885.12z"/>
        <path fill="#FFFFFF" d="M1028.91,1059.54v-44.59l-62.37-72.87h27.63l45.72,54.12l45.89-54.12h26.17l-62.53,72.87v44.59H1028.91z"/>
        <path fill="#FFFFFF" d="M1161.88,1059.54V962.6h-44.59v-20.52h109.7v20.52h-44.59v96.94H1161.88z"/>
        <path fill="#FFFFFF" d="M1240.56,1059.54V942.08h104.86v20.52h-84.5v76.42h84.66v20.52H1240.56z M1275.94,1008.48v-17.29h65.11v17.29H1275.94z"/>
        <path class="st1" d="M1516.03,1059.54l-17.61-29.57h-55.58l9.69-16.64h36.03l-26.17-43.95l-53.32,90.15h-23.43l67.54-112.45
          c1.18-2.04,2.59-3.66,4.2-4.85c1.62-1.18,3.55-1.78,5.82-1.78c2.26,0,4.17,0.59,5.74,1.78c1.56,1.19,2.93,2.8,4.12,4.85
          l67.7,112.45H1516.03z"/>
        <path class="st1" d="M1554.48,1059.54V942.08H1575v117.46H1554.48z"/>
      </g>
    </g>
    <g>
      <g>
        <!-- All these paths are also now white -->
        <path fill="#FFFFFF" d="M649.33,1061.19c4.81-17.33..."/>
        <!-- [TRUNCATED: continue applying fill="#FFFFFF" to all <path> elements without fill or class] -->
      </g>
      <g>
        <path fill="#FFFFFF" d="M579.81,853.18c80.95,0,146.82,65.86..."/>
      </g>
    </g>
  </g>
</svg>
