<svg xmlns="http://www.w3.org/2000/svg" height="800" width="1200" viewBox="-88.545 -31.4 767.39 188.4"><g transform="translate(-3 -336.6)"><linearGradient gradientTransform="matrix(.7071 0 0 -.7071 0 805.76)" y2="580.371" x2="293.89" y1="417.278" x1="293.89" gradientUnits="userSpaceOnUse" id="a"><stop offset="0" stop-color="#a80e1f"/><stop offset=".8" stop-color="#d7192c"/></linearGradient><path d="M48.4 395.4c-.5 2.1-.9 4.8-1.2 6.9H12.6v19.4c3.4-.3 7.6-.2 10.8-.2h15.2v6.9H12.5v20.5h34.4c.4 2.7.8 4.8 1.4 7.5H11.7c-2.8 0-6-.3-8.7-.4v-60.6c2.7-.1 6-.1 8.7-.1h36.7zm18 0c5.3 8.2 12.5 17.3 18.6 23.9 6.4-6.8 13.4-15.7 18.6-23.9H115c-8.8 11.7-17.3 22.1-24.4 30 7.7 8.6 17.7 20.7 24.9 31H104c-5.9-8.9-12.8-17.5-19.3-24.5-6.5 7.2-12.9 14.9-19.3 24.5h-11c9.1-12.3 17.5-22.7 24.7-31-7-7.6-15.4-18.4-24.3-30.1zm86.6 0c8.2 0 13.6 1.2 17.9 4.3 4.3 3.1 7 8.8 7 14.1v1.3c0 6.4-2.1 11.5-5.9 14.8-4.3 3.8-10.8 5.3-18.8 5.3h-18.5v21.3h-9.6v-60.9c2.7-.1 5.6-.1 8.4-.1zm-18.3 32.2h18c5.7 0 9.8-.9 12.2-3.2 2.4-2.3 3.3-5.5 3.3-9.4v-1c0-3.4-1.4-6.5-3.4-8.4-2.5-2.4-7-3.3-12.8-3.3h-17.4zm79.6-32.2c8.1 0 14.8 1 19.1 3.6 4.4 2.7 6.8 7.6 6.8 13.6v1c0 7.4-3.9 13.4-10.3 16.9 5.3 6.1 11.8 16.3 15.9 25.9h-10.1c-4-8.9-9.7-18.5-15-24h-20.8v24h-10.2v-60.9c2.7-.1 6.2-.1 9.1-.1zm-14.5 29.4h24.8c4.1-2.1 6.1-6.1 6.1-11.3v-.5c0-3.4-1-6.2-3.1-7.8-2.4-2-6.9-2.9-13.1-2.9h-14.7zm101.6-29.4c-.5 2.1-.9 4.8-1.2 6.9h-34.7v19.4c3.4-.3 7.7-.2 10.9-.2h15.1v6.9h-26v20.5H300c.4 2.7.8 4.8 1.4 7.5h-36.7c-2.8 0-6.1-.3-8.8-.4v-60.6c2.7-.1 6.1-.1 8.8-.1h36.7zm51.4 8.3c-6.4-1.5-11.7-2.1-17.5-2.1-10.8 0-14.5 4-14.5 8.8 0 4.5 3.6 7.9 11.4 10l5.5 1.4c7.2 1.9 11.4 3.8 14.4 6.2 3.3 2.8 4.5 6.1 4.5 11.2 0 10.6-8 17.7-23.4 17.7-8.2 0-15.5-1.4-22.4-3.8l1.5-7.1c6.5 2.2 13.4 3.5 20.9 3.5 9.9 0 14.2-4.1 14.2-10 0-2.3-.7-4.6-2-5.8-1.7-1.7-4.8-3.1-11.1-4.8l-5.3-1.4c-13.5-3.7-17.6-9.4-17.6-17.3 0-10.1 9.3-16.2 23.6-16.2 7.1 0 13.8 1.1 18.9 2.5zm55.9 0c-6.4-1.5-11.7-2.1-17.5-2.1-10.8 0-14.5 4-14.5 8.8 0 4.5 3.6 7.9 11.4 10l5.5 1.4c7.2 1.9 11.4 3.8 14.4 6.2 3.3 2.8 4.5 6.1 4.5 11.2 0 10.6-8 17.7-23.4 17.7-8.2 0-15.5-1.4-22.4-3.8l1.5-7.1c6.6 2.2 13.4 3.5 20.9 3.5 9.9 0 14.2-4.1 14.2-10 0-2.3-.7-4.6-2-5.8-1.7-1.7-4.8-3.1-11.1-4.8l-5.3-1.4c-13.5-3.7-17.6-9.4-17.6-17.3 0-10.1 9.3-16.2 23.6-16.2 7.1 0 13.8 1.1 18.8 2.5z" fill="url(#a)"/><path d="M357.8 367.4c-1-1.4-2-2.6-2.8-3.4 3.1-1.1 5.1-3.7 5.1-6.9 0-1.8-.6-3.7-1.8-4.9-1.6-1.6-4.2-2.5-8.1-2.5h-16c-.4 3.9-.5 8.1-.5 12.1 0 3.9.2 8.1.5 12.1h7.4c-.4-3.3-.5-5.9-.5-9.1h7.4c.5.6 1.4 1.9 2.4 3.3 1.1 1.7 1.9 3.8 2.9 5.8h8.2c-1.3-1.9-2.4-3.9-4.2-6.5zm-7-6.6h-10c0-2 .1-3.9.2-6.5h6.5c2.4 0 3.5.4 4.3 1.2.5.5.7 1.4.7 2.1.2 1.1-.5 2.6-1.7 3.2zm-87.2 1.2c0 4.1-.2 8-.5 11.9h-6.3c-.5-3.9-.5-7.9-.5-11.9 0-4.3.2-8.4.5-12.3h6.4c.2 3.9.4 8 .4 12.3zm110.6 0c0 4.1-.2 8-.5 11.9h-6.3c-.5-3.9-.5-7.9-.5-11.9 0-4.3.2-8.4.5-12.3h6.3c.3 3.9.5 8 .5 12.3zm29.8-1.2c-2.4-4.6-4.4-7.9-6.3-11.1h-7.6c-1.9 3.3-4.1 6.6-6.3 11.1-2.4 4.6-4.4 9.8-5.8 13h7.8c.5-1.3 1.1-3.3 1.6-4.6h12.9c.6 1.3 1.2 3.3 1.7 4.6h7.8c-1.5-3.8-3.4-8.4-5.8-13zm-14.8 3.9c1.5-3.3 3-6.4 4.6-9.4 1.6 2.9 3.1 6.2 4.7 9.4zm-95-3.7c1.7-1 2.9-2.9 2.9-4.9 0-1.9-.5-3.3-1.8-4.3-2.1-1.7-5.8-2-9.9-2h-13.6c-.4 3.9-.5 8.2-.5 12.1 0 3.9.2 7.5.5 12.1H286c5 0 8.1-.5 10-1.9 1.4-1 2.4-3 2.4-5.3-.1-2.6-1.6-4.7-4.2-5.8zm-15.4-6.8h6.2c2.5 0 3.3.3 4.1 1 .4.4.6 1 .6 1.7 0 1-.5 1.8-1.2 2.4h-10c.1-1.7.2-3.1.3-5.1zm11.5 14.2c-.7.6-1.7.9-3.4.9h-8c-.2-2-.2-3.9-.3-5.3h9.1c1.3 0 2 .1 2.5.6s.8 1 .8 1.8c0 .9-.2 1.5-.7 2zm36.9 5.5h-22.8c-.4-3.9-.5-8.2-.5-12.1 0-3.9.2-8.1.5-12.1h22.9c-.2 2-.3 3.3-.3 5.3h-15.6c-.1 1.3-.2 3.3-.2 4.6h14.2v4.6h-14.2c0 1.3.1 3.3.2 5.3H327c.1 1.1.1 3.1.2 4.4z" fill="#D7192C"/><linearGradient gradientTransform="matrix(.7071 0 0 -.7071 0 805.76)" y2="597.952" x2="825.378" y1="473.587" x1="609.972" gradientUnits="userSpaceOnUse" id="b"><stop offset="0" stop-color="#a80e1f"/><stop offset=".5" stop-color="#d7192c"/></linearGradient><path d="M455.8 432.3c36.4-36.6 88.4-56.9 122.9-57.8l-11.9 30.9c-14.1 32.8-38.2 56.8-140.6 56.8z" fill="url(#b)"/><linearGradient gradientTransform="matrix(.7071 0 0 -.7071 0 805.76)" y2="665.559" x2="837.852" y1="582.048" x1="693.208" gradientUnits="userSpaceOnUse" id="c"><stop offset="0" stop-color="#f68400"/><stop offset=".85" stop-color="#fcd100"/></linearGradient><path d="M491.4 396.3l33.2-33.6c16-15.9 22.4-26.1 68.7-26.1l-7.6 19.9c-31.4 3.5-62.8 17.2-94.3 39.8z" fill="url(#c)"/></g></svg>