<svg xmlns="http://www.w3.org/2000/svg" height="800" width="1200" viewBox="-69.8712 -116.99025 605.5504 701.9415"><path d="M0 0h465.808v467.961H0z"/><path d="M75.295 346.187H91.64l12.407 32.32h.248l11.444-32.32h15.216l-19.28 47.605h-16.03zm84.513-1.125c15.067 0 27.221 9.813 27.221 24.91 0 15.192-12.154 24.945-27.221 24.945-15.154 0-27.224-9.753-27.224-24.945 0-15.097 12.07-24.91 27.224-24.91zm0 36.979c7.492 0 12.06-4.915 12.06-12.069 0-7.129-4.568-12.039-12.06-12.039-7.592 0-12.094 4.91-12.094 12.04 0 7.153 4.502 12.068 12.094 12.068zm35.597-62.264h15.09v74.015h-15.09zm76.885 74.015h-13.88v-6.255h-.22c-2.346 3.375-8.15 7.38-15 7.38-14.5 0-24.095-10.162-24.095-24.51 0-13.251 8.474-25.345 22.385-25.345 6.219 0 12.093 1.625 15.494 6.22h.22v-5.095h15.096zm-25.967-35.859c-7.567 0-12.098 4.91-12.098 12.04 0 7.153 4.531 12.068 12.098 12.068 7.56 0 12.088-4.915 12.088-12.069 0-7.129-4.529-12.039-12.088-12.039zm38.777-11.746h15.195v7.654h.184c3.223-5.808 7.475-8.779 14.1-8.779 1.752 0 3.622.063 4.996.473v13.433c-2.093-.62-4.186-1.035-6.44-1.035-11.463 0-12.84 6.477-12.84 15.943v19.916H285.1zm42.691 0h15.135v47.605h-15.135zm55.108 13.689c-2.407-2.312-5.968-4.093-9.599-4.093-2.503 0-5.622 1.498-5.622 4.314 0 7.594 25.751 1.725 25.751 19.186 0 12.162-12.128 15.634-22.595 15.634-7.183 0-14.497-1.69-19.595-6.818l8.78-8.816c2.975 2.843 7.002 4.91 11.534 4.91 3.38 0 6.972-1.28 6.972-3.78 0-8.279-25.747-1.656-25.747-19.316 0-11.187 10.306-16.035 20.522-16.035 6.476 0 13.632 1.53 18.16 6.22zm-55.108-40.099h15.135v14.88h-15.135z" fill="#FFF"/><path fill="#252525" d="M229.563 73.623h24.576v24.609h-24.576zm0 147.625h24.576v24.604h-24.576zm-73.815-73.805h24.622v24.604h-24.622zm147.593 0h24.604v24.604h-24.604z"/><path fill="#FFF" d="M229.563 147.443h24.576v24.604h-24.576z"/><path fill="#D6EE89" d="M254.139 147.443h24.631v24.604h-24.631z"/><path fill="#BAD5E8" d="M229.563 122.839h24.576v24.604h-24.576z"/><path fill="#74A5CD" d="M229.563 98.232h24.576v24.607h-24.576zm24.576 24.607h24.631v24.604h-24.631zm-49.18 0h24.604v24.604h-24.604z"/><path fill="#DA96C8" d="M204.959 147.443h24.604v24.604h-24.604zm24.604 24.603h24.576v24.598h-24.576z"/><path fill="#7FC31B" d="M278.77 147.443h24.571v24.604H278.77zm-24.631 24.603h24.631v24.598h-24.631z"/><path fill="#911083" d="M180.369 147.443h24.59v24.604h-24.59zm49.194 49.201h24.576v24.604h-24.576zm-24.604-24.598h24.604v24.598h-24.604z"/></svg>